REM DIRINDEX 1\2,1\3,1\4,1\5
REM DIRNAME "folder01","folder02","folder03","folder04","folder05"
TITLE ""
FILE "1Q_t_1168-1177.mp3" MP3
  TRACK 01 AUDIO
    TITLE "0:"
    INDEX 01 00:00:00
  TRACK 02 AUDIO
    TITLE "2:cjc172_4469"
    INDEX 01 00:00:14
  TRACK 03 AUDIO
    TITLE "0:"
    INDEX 01 00:01:37
  TRACK 04 AUDIO
    TITLE "3:cjc172_4470"
    INDEX 01 00:02:07
  TRACK 05 AUDIO
    TITLE "0:"
    INDEX 01 00:03:22
  TRACK 06 AUDIO
    TITLE "4:cjc172_4471"
    INDEX 01 00:03:32
  TRACK 07 AUDIO
    TITLE "0:"
    INDEX 01 00:06:03
  TRACK 08 AUDIO
    TITLE "5:cjc172_4472"
    INDEX 01 00:06:11
  TRACK 09 AUDIO
    TITLE "0:"
    INDEX 01 00:11:24
  TRACK 10 AUDIO
    TITLE "3:cjc172_4473"
    INDEX 01 00:11:69
  TRACK 11 AUDIO
    TITLE "0:"
    INDEX 01 00:13:27
  TRACK 12 AUDIO
    TITLE "4:cjc172_4474"
    INDEX 01 00:13:33
  TRACK 13 AUDIO
    TITLE "0:"
    INDEX 01 00:15:45
  TRACK 14 AUDIO
    TITLE "5:cjc172_4475"
    INDEX 01 00:15:51
  TRACK 15 AUDIO
    TITLE "0:"
    INDEX 01 00:19:59
  TRACK 16 AUDIO
    TITLE "3:cjc172_4476"
    INDEX 01 00:20:27
  TRACK 17 AUDIO
    TITLE "0:"
    INDEX 01 00:21:50
  TRACK 18 AUDIO
    TITLE "4:cjc172_4477"
    INDEX 01 00:21:59
  TRACK 19 AUDIO
    TITLE "0:"
    INDEX 01 00:24:48
  TRACK 20 AUDIO
    TITLE "5:cjc172_4478"
    INDEX 01 00:24:56
  TRACK 21 AUDIO
    TITLE "0:"
    INDEX 01 00:29:30
  TRACK 22 AUDIO
    TITLE "3:cjc172_4479"
    INDEX 01 00:29:73
  TRACK 23 AUDIO
    TITLE "0:"
    INDEX 01 00:31:13
  TRACK 24 AUDIO
    TITLE "4:cjc172_4480"
    INDEX 01 00:31:21
  TRACK 25 AUDIO
    TITLE "0:"
    INDEX 01 00:33:37
  TRACK 26 AUDIO
    TITLE "5:cjc172_4481"
    INDEX 01 00:33:43
  TRACK 27 AUDIO
    TITLE "0:"
    INDEX 01 00:37:66
  TRACK 28 AUDIO
    TITLE "3:cjc172_4482"
    INDEX 01 00:38:38
  TRACK 29 AUDIO
    TITLE "0:"
    INDEX 01 00:39:57
  TRACK 30 AUDIO
    TITLE "4:cjc172_4483"
    INDEX 01 00:39:65
  TRACK 31 AUDIO
    TITLE "0:"
    INDEX 01 00:43:18
  TRACK 32 AUDIO
    TITLE "5:cjc172_4484"
    INDEX 01 00:43:26
  TRACK 33 AUDIO
    TITLE "0:"
    INDEX 01 00:46:28
  TRACK 34 AUDIO
    TITLE "3:cjc172_4485"
    INDEX 01 00:46:73
  TRACK 35 AUDIO
    TITLE "0:"
    INDEX 01 00:48:15
  TRACK 36 AUDIO
    TITLE "4:cjc172_4486"
    INDEX 01 00:48:23
  TRACK 37 AUDIO
    TITLE "0:"
    INDEX 01 00:49:50
  TRACK 38 AUDIO
    TITLE "5:cjc172_4487"
    INDEX 01 00:49:56
  TRACK 39 AUDIO
    TITLE "0:"
    INDEX 01 00:54:24
  TRACK 40 AUDIO
    TITLE "3:cjc172_4488"
    INDEX 01 00:54:69
  TRACK 41 AUDIO
    TITLE "0:"
    INDEX 01 00:55:74
  TRACK 42 AUDIO
    TITLE "4:cjc172_4489"
    INDEX 01 00:56:07
  TRACK 43 AUDIO
    TITLE "0:"
    INDEX 01 00:58:45
  TRACK 44 AUDIO
    TITLE "5:cjc172_4490"
    INDEX 01 00:58:53
  TRACK 45 AUDIO
    TITLE "0:"
    INDEX 01 01:04:59
  TRACK 46 AUDIO
    TITLE "3:cjc172_4491"
    INDEX 01 01:05:31
  TRACK 47 AUDIO
    TITLE "0:"
    INDEX 01 01:06:48
  TRACK 48 AUDIO
    TITLE "4:cjc172_4492"
    INDEX 01 01:06:58
  TRACK 49 AUDIO
    TITLE "0:"
    INDEX 01 01:09:21
  TRACK 50 AUDIO
    TITLE "5:cjc172_4493"
    INDEX 01 01:09:29
  TRACK 51 AUDIO
    TITLE "0:"
    INDEX 01 01:14:07
  TRACK 52 AUDIO
    TITLE "3:cjc172_4494"
    INDEX 01 01:14:52
  TRACK 53 AUDIO
    TITLE "0:"
    INDEX 01 01:15:69
  TRACK 54 AUDIO
    TITLE "4:cjc172_4495"
    INDEX 01 01:16:00
  TRACK 55 AUDIO
    TITLE "0:"
    INDEX 01 01:17:25
  TRACK 56 AUDIO
    TITLE "5:cjc172_4496"
    INDEX 01 01:17:31
  TRACK 57 AUDIO
    TITLE "0:"
    INDEX 01 01:21:01
  TRACK 58 AUDIO
    TITLE "3:cjc172_4497"
    INDEX 01 01:21:48
  TRACK 59 AUDIO
    TITLE "0:"
    INDEX 01 01:22:57
  TRACK 60 AUDIO
    TITLE "4:cjc172_4498"
    INDEX 01 01:22:65
  TRACK 61 AUDIO
    TITLE "0:"
    INDEX 01 01:26:35
  TRACK 62 AUDIO
    TITLE "5:cjc172_4499"
    INDEX 01 01:26:43
  TRACK 63 AUDIO
    TITLE "0:"
    INDEX 01 01:31:05
